<svg xmlns="http://www.w3.org/2000/svg" viewBox="0 0 274.89 255.38"><defs><style>.cls-1{fill:#fff;}</style></defs><g id="Capa_2" data-name="Capa 2"><g id="Capa_1-2" data-name="Capa 1"><path class="cls-1" d="M132.78,114.6c6.72,7,13.36,13.91,20.7,21.57-6.73,5.38-13.06,11-19.93,15.82-18.68,13.19-39.92,16.22-61.93,13.38C37.53,161,13.48,142.53,4.1,109.32-14.32,44.09,32.49,1.21,81.86,0c27.76-.66,50.93,9.4,69.94,29.43.59.61,1.09,1.31,1.89,2.28l-20.9,20c-1.08-1-2.08-1.83-3-2.75-15-14.58-32.64-22.1-53.75-19.31C47.13,33.47,27.14,60.3,30.76,89.44c2.53,20.45,12.46,35.69,31.71,43.32,20.94,8.29,41,5.63,59-8.45C125.28,121.32,128.83,118,132.78,114.6Z"/><path class="cls-1" d="M274.56,124.76l-14.25,16.06c-6.4-6.34-12.84-11.34-20.66-14.39-24.21-9.43-49.93,4.32-54.8,29.37-3.2,16.45,3.18,32.78,16.22,41.51,13.64,9.13,33.07,9.2,46.71-.08,4.22-2.87,8-6.32,12.37-9.77l14.74,15.42c-17.68,21.05-49.36,28.75-75.68,18.55-25-9.7-38.86-33.17-37.38-63.37,1.21-24.71,19-46.51,44.16-53.69C232.57,96.77,260.42,106.87,274.56,124.76Z"/><path class="cls-1" d="M76.39,176.53l36.7-6.78c1.06,5.65,2.1,11,3.08,16.34,3,16.19,6,32.38,8.88,48.59,1.79,10.12-5.11,19.16-15.43,20.47-11.42,1.45-20.08-3.94-22-15.88-3.26-20.19-7.24-40.26-10.92-60.39C76.58,178.28,76.53,177.66,76.39,176.53Z"/><path class="cls-1" d="M45.87,85.39C44,66.15,64.81,41.56,90,43.46c0,3.4.13,6.84-.11,10.25,0,.68-1.37,1.54-2.26,1.83C84.87,56.42,82,57,79.3,57.83c-12,3.83-18.71,12.4-21,24.5-.58,3-1.82,4-4.71,3.57-2.1-.28-4.24-.16-6.36-.25A8.46,8.46,0,0,1,45.87,85.39Z"/><path class="cls-1" d="M195.73,165.68c-1.46-16.61,16.49-33.57,32.69-31,0,.79.09,1.63.1,2.47.06,5.52.07,5.61-5.37,7-11.23,2.81-17.32,10.15-18.89,21.6Z"/></g></g></svg>