<?xml version="1.0" encoding="utf-8"?>
<!-- Generator: Adobe Illustrator 25.4.1, SVG Export Plug-In . SVG Version: 6.00 Build 0)  -->
<svg version="1.1" id="Capa_1" xmlns="http://www.w3.org/2000/svg" xmlns:xlink="http://www.w3.org/1999/xlink" x="0px" y="0px"
	 viewBox="0 0 367.5 135.7" style="enable-background:new 0 0 367.5 135.7;" xml:space="preserve">
<style type="text/css">
	.st0{fill:#182C60;}
</style>
<g id="Capa_2_00000013160449085736202810000012776373992858408083_">
	<g id="Capa_1-2">
		<path class="st0" d="M71.8,14.4l-8.8,10c-18.4-13.6-31.9-14.1-42.8-1.9c-8.3,9.3-8.1,25.5,0.5,34.7c7.8,8.3,26,13.5,41.9-2.8
			c3.2,3.3,6.3,6.6,9.4,9.9c-18.3,20.5-47.8,17.1-61.5,3.2c-14.4-14.8-14.4-43.7,2-57.6C30.6-5.5,58.7-2.1,71.8,14.4z"/>
		<path class="st0" d="M164.5,68.4h-10.3c0-4.8,0-9.4,0-14c0-3.6,0-7.2-0.2-10.9c-0.2-2.8-1.4-5.1-4.5-5.6s-6,0.5-7.2,3.4
			c-0.9,2.4-1.4,5-1.4,7.6c-0.2,6.4-0.1,12.7-0.1,19.4h-10.7V30c6-1.6,6.9-1.3,9.1,2.6c4.1-1.4,8.1-3.5,12.2-4.1
			c4.6-0.7,8.4,2,10.9,5.3c3.2-1.8,6-4,9.2-4.9c8.4-2.2,16.2,3.2,16.8,11.9c0.6,9,0.1,18.2,0.1,27.5H178c0-5,0-9.8,0-14.7
			c0-3.2,0.1-6.5-0.1-9.7c-0.2-3.1-1.4-5.7-4.9-6.1s-6.2,1.1-7.4,4.4c-0.7,2-1,4.1-1,6.2C164.4,55,164.5,61.5,164.5,68.4z"/>
		<path class="st0" d="M198.6,29.6c3.4-0.2,6.9-1.6,8.5,2.9c11.4-6,21.1-5.2,27.8,2.1c6.3,7.3,7.2,17.9,2.1,26.1
			c-5.6,8.7-14.5,10.8-28,6.4v15.4h-10.4V29.6z M218.8,59.6c5.8,0.2,10.6-4.3,10.8-10.1c0-0.1,0-0.3,0-0.4
			c0.1-5.9-4.7-10.7-10.6-10.8s-10.7,4.7-10.8,10.6l0,0c-0.2,5.7,4.3,10.5,10,10.7C218.4,59.6,218.6,59.6,218.8,59.6L218.8,59.6z"/>
		<path class="st0" d="M287.9,69c-3.2-1.6-7.5,2.1-9.2-3.7c-6,4.2-12.6,6-19.4,3c-4-1.7-7.5-4.3-10.2-7.7
			c-5.9-7.7-4.7-19.1,1.8-26.2c6.9-7.4,17-8.1,27.6-2.1c2-3.5,2.8-3.7,9.2-2.6L287.9,69z M267,59.6c5.7,0.1,10.5-4.4,10.6-10.2
			c0-0.1,0-0.3,0-0.4c0.2-5.9-4.5-10.8-10.4-11c-5.9-0.2-10.8,4.5-11,10.4c0,0.2,0,0.4,0,0.7c-0.1,5.7,4.5,10.5,10.2,10.6
			C266.7,59.6,266.8,59.6,267,59.6z"/>
		<path class="st0" d="M358.5,32.5c1.6-5.3,5.6-2.6,9-3.1v38.9h-7.8l-1.4-2.8c-11.1,6.2-21.6,5.1-28.2-2.9
			c-6.5-7.9-6.6-19.3-0.1-27.2C336.9,27.2,347.2,26.1,358.5,32.5z M346.8,59.6c6.1-0.1,10.5-4.6,10.4-10.8c0.2-5.7-4.3-10.5-10-10.6
			c-0.2,0-0.4,0-0.6,0c-6.3,0-10.7,4.6-10.6,11c-0.1,5.7,4.4,10.3,10.1,10.4C346.4,59.6,346.6,59.6,346.8,59.6z"/>
		<path class="st0" d="M122.5,48.9c0,11.9-9.3,20.9-21.4,20.8s-21-9.1-21-20.8s9.3-20.9,21.4-20.8C113.4,28.2,122.5,37.2,122.5,48.9
			z M101.5,59.6c6.1-0.1,10.4-4.6,10.3-10.9s-4.6-10.7-10.7-10.5s-10.3,4.6-10.2,10.9S95.3,59.7,101.5,59.6z"/>
		<path class="st0" d="M35.8,83.7l17.4-3.2c0.8,4,1.6,7.7,2.2,11.5c1.2,6.5,2.4,13,3.5,19.5c0.7,4.4-2.1,8.3-6.6,9.4
			c-4.7,1.2-9.6-1.1-10.5-5.4C39.6,105.1,37.8,94.6,35.8,83.7z"/>
		<path class="st0" d="M149.5,96.4c-1.5,1.4-3,2.8-4.7,4.4c-4-3.7-8.5-6.3-13.9-5c-3,0.8-5.7,2.3-7.8,4.5c-4.3,4.5-3.8,12.7,0.6,17
			c5.4,5.4,13.3,5,21.2-1.6l4.3,5c-5.4,7.3-15.7,8.7-23.9,5.9s-12.2-9.7-11.9-20.2c0.2-7.7,5.4-14.3,13.2-16.8
			C134.9,86.9,144.6,89.7,149.5,96.4z"/>
		<path class="st0" d="M308.6,68.4h-10.2V29.8c6-1.1,6.2-1,8.5,4c4.1-4,9.1-5.2,14.7-4.6v10c-1.7,0-3.3,0-4.9,0
			c-5.4,0.2-7.5,2-7.8,7.5c-0.3,6.3-0.2,12.7-0.2,19.1C308.7,66.5,308.6,67.2,308.6,68.4z"/>
		<path class="st0" d="M189.9,126.2h-4.1V99.4l4.3,3.2c7-4.3,10.4-4.2,15.6,1.4c1.3-1.1,2.6-2.1,4-3c6.2-3.5,13.4,0,13.9,7
			c0.4,5.9,0.1,11.9,0.1,18.1h-3.5c-0.2-0.3-0.3-0.6-0.4-1c0-4.6,0-9.2-0.1-13.9c-0.1-5.1-2.1-7.8-5.6-7.9c-3.7-0.2-6.9,2.9-7.1,7.7
			c-0.3,4.9-0.1,9.9-0.1,15.1l-3.7,0.2c-0.2-0.4-0.3-0.8-0.4-1.2c0-4.8,0-9.5-0.1-14.2s-2.1-7.4-5.6-7.6s-6.9,3-7.1,7.2
			C189.7,115.7,189.9,120.8,189.9,126.2z"/>
		<path class="st0" d="M235.6,123.3v11.9c-3.4,1.2-4.1-0.2-4.1-3.1c0.1-9.4,0-18.8,0.1-28.1c0-1.3,0.7-2.6,1.1-3.8l3.1,3
			c8-4.7,15.1-4.5,19.8,1c4.4,5.3,4.4,13,0,18.3C251,127.7,243.8,128.2,235.6,123.3z M245.2,103.7c-5.3,0.2-9.5,4.6-9.3,9.8
			c0.1,5.1,4.2,9.1,9.2,9.3c5.6,0,9.6-4,9.6-9.7c0.2-5-3.8-9.3-8.9-9.4C245.6,103.7,245.4,103.7,245.2,103.7z"/>
		<path class="st0" d="M308.3,126.8l-3.6-3.3c-3.2,2.5-7.3,4.5-11.9,3c-3-0.9-5.8-2.6-8.1-4.8c-4.4-4.8-3.8-13.1,0.7-17.8
			c5-5.3,12.6-5.4,19.8-0.4c1.3-0.9,0.5-4.9,4-2.8v25.2L308.3,126.8z M296,103.7c-5.3-0.1-9.7,4-9.8,9.3s4,9.7,9.3,9.8
			c5.3,0.1,9.7-4,9.8-9.3c0,0,0-0.1,0-0.1c0.2-5.1-3.8-9.5-9-9.7C296.2,103.7,296.1,103.7,296,103.7z"/>
		<path class="st0" d="M151.5,113.4c0-7.9,5.7-13.7,13.7-13.8c7.5-0.3,13.9,5.7,14.1,13.2c0.3,7.5-5.7,13.9-13.2,14.1
			c-0.2,0-0.5,0-0.7,0c-7.4,0.3-13.6-5.6-13.9-13C151.5,113.8,151.5,113.6,151.5,113.4z M165.5,103.7c-5.3-0.2-9.7,3.9-10,9.2
			c-0.2,5.3,3.9,9.7,9.2,10c0.2,0,0.4,0,0.6,0c5.1,0.2,9.3-3.7,9.6-8.7c0-0.2,0-0.4,0-0.6C175.1,107.8,171.2,103.8,165.5,103.7
			L165.5,103.7z"/>
		<path class="st0" d="M85,84.3c2.6-1,3.9-0.3,4.8,1.9c2.1,4.8,4.4,9.4,6.7,14.3c4.8-4.9,3.8-13.5,10.3-16.9l1.3,0.8
			c-1.1,2.4-2.1,4.9-3.2,7.3c-2.7,5.9-5.4,11.8-8.2,17.7c-1.5,3.2-3.7,5.6-7.6,5.8c-2.3,0.2-3.4-0.5-2.5-2.9
			c1.6-0.3,3.2-0.7,4.7-1.3c2.8-1.5,3.7-5.4,2.3-8.4C90.8,96.5,88,90.6,85,84.3z"/>
		<path class="st0" d="M42,20.7c0.9,3.6,0.1,5.5-3.8,6.4c-6.7,1.7-8.8,4.5-11.6,13.3h-5C19.9,32,30.8,19.4,42,20.7z"/>
		<path class="st0" d="M266.5,99.7l2.4,3.1l10-3.5c0.2,2,0.3,3,0.5,4.3c-0.9,0.2-1.6,0.3-2.3,0.4c-5.4,0.4-7.6,2.7-7.8,8.1
			c-0.1,2.4,0,4.8,0,7.1s0,4.5,0,7l-4,0.3v-25.9L266.5,99.7z"/>
		<path class="st0" d="M123.9,109.6c0.6-6.8,3.8-9.9,11.2-10.8c-1,1.5-1.5,2.9-2.2,3.1c-3.1,1-5.2,2.7-6.1,5.9
			C126.6,108.5,125.3,108.8,123.9,109.6z"/>
	</g>
</g>
</svg>
