<svg id="bf9bb168-c336-4b9f-8593-65be75e7c03b" data-name="Capa 1" xmlns="http://www.w3.org/2000/svg" viewBox="0 0 689.59 211.83"><defs><style>.e584da34-842f-400f-a3a7-ba63d8c0b601{fill:none;}.e902bcde-2d5c-44b5-bab5-02a450d1e804{fill:#1f2228;}.f0f6af52-0aa3-4b51-85b4-67ebe2f93888{fill:#c61a23;}</style></defs><line class="e584da34-842f-400f-a3a7-ba63d8c0b601" x1="30.67" y1="96.04" x2="28.92" y2="96.04"/><polygon class="e902bcde-2d5c-44b5-bab5-02a450d1e804" points="204.62 191.25 204.62 125.45 188.96 125.45 188.96 107.8 224.47 107.8 224.47 191.25 240.14 191.25 240.14 208.91 188.96 208.91 188.96 191.25 204.62 191.25"/><path class="e902bcde-2d5c-44b5-bab5-02a450d1e804" d="M816.77,507.7a11.65,11.65,0,0,1,3.4-8.35,11.39,11.39,0,0,1,8.62-3.56,11.73,11.73,0,0,1,8.46,3.45,11.36,11.36,0,0,1,3.55,8.46,12,12,0,0,1-24,0Z" transform="translate(-614.97 -434.27)"/><path class="f0f6af52-0aa3-4b51-85b4-67ebe2f93888" d="M881.64,625.52v-110h-18V497.88h37.81V625.52h15.46v17.65H863.67V625.52Z" transform="translate(-614.97 -434.27)"/><path class="f0f6af52-0aa3-4b51-85b4-67ebe2f93888" d="M944.52,625.52v-65.8H928.85V542.07h35.51v83.45H980v17.65H928.85V625.52ZM941.7,507.7a11.68,11.68,0,0,1,3.39-8.35,11.39,11.39,0,0,1,8.62-3.56,11.73,11.73,0,0,1,8.46,3.45,11.36,11.36,0,0,1,3.55,8.46,12,12,0,0,1-24,0Z" transform="translate(-614.97 -434.27)"/><path class="f0f6af52-0aa3-4b51-85b4-67ebe2f93888" d="M1087.72,542.07V580.3H1070q-1.35-11-8.93-16.82a28,28,0,0,0-17.6-5.85q-13.37,0-21.73,9.45t-8.35,24.81a41.68,41.68,0,0,0,7.94,25.22q7.93,10.92,23,10.92,20.88,0,30.29-19.85l16.4,7.73q-13.59,30.2-47.53,30.19-24,0-37.81-16.4a57.05,57.05,0,0,1-13.79-37.81q0-22.87,15-37.76t34.68-14.88q16.82,0,28.41,9.92v-7.1Z" transform="translate(-614.97 -434.27)"/><path class="f0f6af52-0aa3-4b51-85b4-67ebe2f93888" d="M1103.91,592.62q0-23.4,15.46-38.38t37.7-15a52.69,52.69,0,0,1,37.5,14.78q15.67,14.78,15.67,38.59t-15.62,38.65q-15.61,14.84-37.55,14.83-22.56,0-37.86-15T1103.91,592.62Zm21,0q0,15,9.35,24.53A32,32,0,0,0,1180,617q9.24-9.68,9.24-24.43t-9.4-24.49a30.64,30.64,0,0,0-22.77-9.61q-14,0-23.08,9.82T1124.9,592.57Z" transform="translate(-614.97 -434.27)"/><path class="f0f6af52-0aa3-4b51-85b4-67ebe2f93888" d="M1243.45,625.52v-65.8h-20.36V542.07h36.24v22.77a40.11,40.11,0,0,1,9.3-14.73,29.48,29.48,0,0,1,12.58-7.73q6.63-1.87,18.12-1.88h5.23v20h-4q-15.15,0-22.62,3a20.32,20.32,0,0,0-11.07,11q-3.6,8-3.6,28.67v22.25h22v17.65h-62.25V625.52Z" transform="translate(-614.97 -434.27)"/><path class="e902bcde-2d5c-44b5-bab5-02a450d1e804" d="M791.81,516.06V497.88H741.57l-38.65,99.6-38.23-99.6H615v18.18h17.45V625H615v18.17h51.39V625h-16V516.06L700,644.64h4.28l50.14-128.58V625H737.08v18.17h54.73V625H774.26V516.06Z" transform="translate(-614.97 -434.27)"/><path class="f0f6af52-0aa3-4b51-85b4-67ebe2f93888" d="M735.43,466.69q0-14.46-9.52-23.44a32,32,0,0,0-22.78-9,31.68,31.68,0,0,0-22.91,9.1q-9.39,9.12-9.39,23.32a34.24,34.24,0,0,0,2.62,13.62h0l29.56,77,29.88-77h0A34.28,34.28,0,0,0,735.43,466.69Zm-23.84,8.43a11.62,11.62,0,0,1-8.46,3.5,11.48,11.48,0,0,1-8.51-3.55,12,12,0,0,1-.11-16.82,11.45,11.45,0,0,1,8.62-3.55,11.73,11.73,0,0,1,8.46,3.45,11.33,11.33,0,0,1,3.55,8.46A11.48,11.48,0,0,1,711.59,475.12Z" transform="translate(-614.97 -434.27)"/></svg>