<svg xmlns="http://www.w3.org/2000/svg" viewBox="0 0 367.55 135.66"><defs><style>.cls-1{fill:#fff;}</style></defs><g id="Capa_2" data-name="Capa 2"><g id="Capa_1-2" data-name="Capa 1"><path d="M71.77,14.42,63,24.41C44.64,10.84,31.09,10.33,20.25,22.49c-8.32,9.34-8.14,25.45.45,34.66,7.76,8.32,26,13.5,41.92-2.79q4.73,5,9.42,9.89C53.77,84.79,24.22,81.37,10.57,67.4-3.87,52.63-3.82,23.75,12.6,9.82,30.64-5.48,58.66-2.1,71.77,14.42Z"/><path d="M164.49,68.36H154.16c0-4.79,0-9.39,0-14,0-3.62,0-7.25-.21-10.87-.16-2.84-1.43-5.14-4.5-5.64s-6,.46-7.22,3.43a21.81,21.81,0,0,0-1.45,7.62c-.2,6.36-.06,12.73-.06,19.37H130.05V30c6-1.58,6.89-1.26,9.09,2.63,4.15-1.44,8.05-3.46,12.16-4.06,4.6-.68,8.36,1.95,10.88,5.28,3.19-1.75,6-4.05,9.25-4.9,8.38-2.22,16.25,3.2,16.82,11.91.59,9,.13,18.18.13,27.49H178c0-5,0-9.83,0-14.67,0-3.25.11-6.51-.11-9.74-.21-3.06-1.38-5.68-4.92-6.1s-6.21,1.08-7.41,4.4a19.49,19.49,0,0,0-1,6.23C164.41,55,164.49,61.46,164.49,68.36Z"/><path d="M198.64,29.58c3.39-.25,6.94-1.62,8.48,2.9,11.39-6,21.14-5.24,27.82,2.11A22.08,22.08,0,0,1,237,60.7c-5.6,8.69-14.48,10.81-28,6.43V82.57H198.64Zm20.16,30a10.45,10.45,0,0,0,10.81-10.48,10.69,10.69,0,1,0-21.38-.22A10.39,10.39,0,0,0,218.8,59.61Z"/><path d="M287.88,69c-3.19-1.64-7.5,2.13-9.18-3.65-6,4.21-12.64,6-19.37,3a26.24,26.24,0,0,1-10.17-7.69C243.28,53,244.47,41.53,251,34.5c6.89-7.39,17-8.15,27.65-2.1,2-3.48,2.8-3.72,9.19-2.65ZM267,59.6A10.41,10.41,0,0,0,277.63,49a10.69,10.69,0,1,0-21.37.05A10.39,10.39,0,0,0,267,59.6Z"/><path d="M358.54,32.48c1.57-5.27,5.61-2.6,9-3.06V68.34h-7.82l-1.4-2.81c-11.12,6.22-21.56,5.09-28.23-2.93A21.45,21.45,0,0,1,330,35.37C336.85,27.24,347.18,26.15,358.54,32.48ZM346.82,59.6c6.1-.07,10.47-4.57,10.44-10.77a10.31,10.31,0,0,0-10.59-10.64c-6.28,0-10.72,4.6-10.61,11A10.24,10.24,0,0,0,346.82,59.6Z"/><path d="M122.47,48.93c0,11.87-9.31,20.92-21.36,20.78s-21-9.06-21-20.78S89.4,28,101.49,28.14C113.41,28.24,122.48,37.22,122.47,48.93Zm-21,10.67c6.08-.07,10.43-4.64,10.32-10.86s-4.61-10.66-10.67-10.55S90.79,42.8,90.87,49.1,95.26,59.68,101.47,59.6Z"/><path d="M35.81,83.72l17.35-3.24c.79,4,1.56,7.72,2.25,11.48,1.2,6.5,2.38,13,3.48,19.51.74,4.36-2.09,8.29-6.61,9.39-4.72,1.16-9.58-1.06-10.5-5.43C39.61,105.07,37.84,94.62,35.81,83.72Z"/><path d="M149.5,96.36c-1.48,1.4-3,2.82-4.7,4.41-4-3.74-8.54-6.29-13.89-5a17,17,0,0,0-7.85,4.53c-4.34,4.54-3.75,12.65.64,17,5.44,5.45,13.26,5,21.2-1.59l4.27,5c-5.35,7.29-15.7,8.74-23.95,5.91s-12.17-9.71-11.94-20.23c.17-7.65,5.36-14.28,13.16-16.8C134.86,86.89,144.58,89.65,149.5,96.36Z"/><path d="M308.58,68.38H298.39V29.77c6-1.1,6.18-1,8.48,4,4.11-4,9.06-5.23,14.74-4.58v10c-1.72,0-3.3,0-4.87,0-5.35.2-7.52,2.05-7.78,7.46-.31,6.34-.16,12.71-.22,19.07C308.73,66.46,308.65,67.2,308.58,68.38Z"/><path d="M189.87,126.15h-4.14V99.43L190,102.6c7-4.34,10.4-4.15,15.64,1.38a34.05,34.05,0,0,1,4-3c6.24-3.46,13.41,0,13.89,7,.4,5.94.08,11.93.08,18.1h-3.47a2.84,2.84,0,0,1-.38-1c0-4.62,0-9.24-.11-13.86-.15-5.08-2.13-7.75-5.65-7.91-3.72-.18-6.85,2.89-7.13,7.65-.3,4.95-.07,9.93-.07,15.11l-3.69.18a4.08,4.08,0,0,1-.42-1.17c0-4.75,0-9.49-.08-14.23s-2.15-7.37-5.6-7.55-6.92,3-7.12,7.25C189.69,115.68,189.87,120.79,189.87,126.15Z"/><path d="M235.62,123.29v11.93c-3.39,1.21-4.15-.19-4.11-3.12.11-9.37,0-18.75.09-28.12,0-1.29.73-2.56,1.13-3.84l3.13,3c8-4.74,15.09-4.49,19.76,1a14.36,14.36,0,0,1,0,18.3C251,127.74,243.78,128.21,235.62,123.29Zm9.57-19.61a9.58,9.58,0,0,0-.07,19.15c5.64,0,9.63-4,9.56-9.74A9.14,9.14,0,0,0,245.19,103.68Z"/><path d="M308.31,126.79l-3.59-3.3c-3.17,2.48-7.32,4.46-11.89,3a19.29,19.29,0,0,1-8.07-4.85c-4.38-4.8-3.76-13.1.68-17.83,4.95-5.26,12.64-5.45,19.8-.39,1.27-.89.49-4.88,4-2.79v25.24ZM296,103.69a9.57,9.57,0,1,0,9.32,9.67A9.32,9.32,0,0,0,296,103.69Z"/><path d="M151.54,113.36c0-7.86,5.7-13.65,13.68-13.76a13.67,13.67,0,1,1,.23,27.33A13.45,13.45,0,0,1,151.54,113.36Zm14-9.68a9.58,9.58,0,1,0-.18,19.15,9.17,9.17,0,0,0,9.59-9.3C175.05,107.82,171.16,103.75,165.52,103.68Z"/><path d="M85,84.35c2.6-1,3.88-.26,4.82,1.87,2.1,4.76,4.41,9.44,6.68,14.26,4.8-4.92,3.82-13.47,10.3-16.93l1.3.76c-1.07,2.43-2.13,4.86-3.23,7.28-2.7,5.89-5.38,11.79-8.15,17.65-1.52,3.19-3.73,5.56-7.61,5.8-2.34.15-3.36-.51-2.46-2.9a22,22,0,0,0,4.65-1.31c2.77-1.49,3.74-5.4,2.33-8.36C90.79,96.51,88,90.57,85,84.35Z"/><path d="M42,20.71c.94,3.63.1,5.47-3.79,6.44-6.7,1.66-8.75,4.46-11.56,13.34h-5C19.9,32,30.83,19.35,42,20.71Z"/><path d="M266.47,99.67l2.44,3.07,10-3.51c.22,2,.34,3,.47,4.27-.9.15-1.6.31-2.3.37-5.37.44-7.6,2.72-7.78,8.07-.08,2.37,0,4.75,0,7.12s0,4.47,0,7l-4,.29V100.41Z"/><path d="M123.92,109.57c.62-6.83,3.77-9.86,11.21-10.79-1,1.52-1.46,2.87-2.23,3.13-3.06,1-5.15,2.73-6.08,5.93C126.63,108.47,125.31,108.77,123.92,109.57Z"/><path class="cls-1" d="M218.8,59.61a10.39,10.39,0,0,1-10.57-10.7,10.69,10.69,0,1,1,10.57,10.7Z"/><path class="cls-1" d="M267,59.6A10.39,10.39,0,0,1,256.26,49,10.69,10.69,0,1,1,277.63,49,10.41,10.41,0,0,1,267,59.6Z"/><path class="cls-1" d="M346.82,59.6a10.24,10.24,0,0,1-10.76-10.43c-.11-6.38,4.33-11,10.61-11a10.31,10.31,0,0,1,10.59,10.64C357.29,55,352.92,59.53,346.82,59.6Z"/><path class="cls-1" d="M101.47,59.6c-6.21.08-10.52-4.19-10.6-10.5S95,38.3,101.12,38.19s10.57,4.35,10.67,10.55S107.55,59.53,101.47,59.6Z"/><path class="cls-1" d="M245.19,103.68a9.14,9.14,0,0,1,9.49,9.41c.07,5.7-3.92,9.77-9.56,9.74a9.58,9.58,0,0,1,.07-19.15Z"/><path class="cls-1" d="M296,103.69a9.57,9.57,0,1,1-.61,19.13,9.57,9.57,0,1,1,.61-19.13Z"/><path class="cls-1" d="M165.52,103.68c5.64.07,9.53,4.14,9.41,9.85a9.17,9.17,0,0,1-9.59,9.3,9.58,9.58,0,1,1,.18-19.15Z"/></g></g></svg>